<svg xmlns="http://www.w3.org/2000/svg" viewBox="0 0 722.99 300.89">
    <defs>
        <style>.cls-1{fill:#2da2dc;}.cls-1,.cls-2{fill-rule:evenodd;}.cls-2,.cls-3{fill:#e4511f;}.cls-4{fill:#f0b619;}
        </style>
    </defs>
    <g id="JSS">
        <path class="cls-1"
              d="M175.13,97.78a57.3,57.3,0,1,1-49.72,0V47.52a105,105,0,1,0,49.72,0Z"/>
        <path class="cls-2"
              d="M251.6,38.78a150.69,150.69,0,0,1-189.16,234,21.71,21.71,0,0,0,19.71-21.54v-1.4A120.79,120.79,0,1,0,59.4,229.56,21.71,21.71,0,0,0,38.89,251.1v.63A150.69,150.69,0,0,1,251.6,38.78Z"/>
        <path class="cls-3"
              d="M134.93,46h29.32V158.12H134.93Z"/>
        <path class="cls-1"
              d="M60.41,236.41a14.76,14.76,0,1,1-14.76,14.76h0A14.76,14.76,0,0,1,60.41,236.41Z"/>
        <path class="cls-4"
              d="M360.15,63.9h29.28V256.13q1.26,43.28-44.57,43.27h-8.93V275.24h3.81q22.92,2.5,20.41-21.66h0Zm0-62.37h29.28V33.32H360.15Zm194.74,112h-28q0-29.28-40.76-29.28h0q-31.78,1.24-33.09,24.17h0Q450.5,125,483.64,131.34h0l29.28,6.37q48.35,11.47,47.08,45.82h0q-2.55,50.94-66.18,53.5h0q-72.6,0-73.85-57.31h26.72q2.55,35.66,47.13,35.65h0q36.9-1.25,38.16-28h0q2.55-15.28-33.1-24.21h0l-34.34-7.62q-39.46-10.19-39.46-40.77h0q2.51-52.19,64.88-56h0Q551.09,60,554.89,113.54Zm163,0h-28q0-29.28-40.76-29.28h0Q617.31,85.51,616,108.43h0q-2.57,16.54,30.58,22.91h0l29.28,6.37q48.35,11.47,47.09,45.82h0q-2.57,50.94-66.19,53.5h0q-72.6,0-73.85-57.31h26.72q2.57,35.66,47.13,35.65h0q36.9-1.25,38.16-28h0q2.55-15.28-33.09-24.21h0l-34.35-7.62Q588,145.38,588,114.79h0q2.51-52.19,64.88-56h0Q714,60,717.84,113.54Z"/>
    </g>
</svg>
